<svg xmlns="http://www.w3.org/2000/svg" viewBox="0 0 340 172.3" width="340" height="172.3">
  <!-- Марка STENCLOUD для сводки multitest. Те же три контура, что зашиты в
       multitest.sh (AD_LOGO_STEN / AD_LOGO_CLOUD / AD_LOGO_DOTS): обведены
       потрейсом с stencloud.png. Правка идёт сюда и оттуда переносится в
       скрипт — в bash путь живёт одной строкой и глазами не читается. -->
  <path fill="#FAF7FE" fill-rule="evenodd" d="M 33.6 0.4 C 22.4 1.3, 12.7 9, 9.1 19.8 C 8.1 22.7, 7.7 27.3, 8.1 31 C 8.5 35, 9.3 37.5, 11.1 40.7 C 14.7 47, 20.7 51.5, 28.3 53.5 C 30.9 54.2, 31.5 54.2, 48.1 54.4 L 65.2 54.6 66.5 55.4 C 68.1 56.5, 69.1 58.4, 69.1 60.5 C 69.1 62.6, 68.2 64, 66.4 65.2 L 64.9 66.1 50.1 66.2 C 33.5 66.3, 33.6 66.3, 31.6 64.1 C 31 63.4, 30.4 62.4, 30.3 61.7 C 30.2 61, 29.9 60.4, 29.7 60.3 C 29.3 60, 7.4 60.3, 7.1 60.6 C 6.8 60.9, 7.4 66.3, 8 68.6 C 9.1 72.6, 10.9 75.9, 14.1 79.3 C 17.6 83, 21.3 85.1, 27 86.7 L 30 87.6 49.1 87.6 C 66.9 87.6, 68.4 87.5, 70.6 87 C 83.6 83.7, 91.8 73.4, 91.8 60.2 C 91.8 49.9, 85.5 40.4, 75.5 35.5 C 74.4 35, 72 34.2, 70 33.7 L 66.4 32.9 50.8 32.8 C 36.1 32.7, 35 32.7, 34 32.1 C 32.6 31.4, 31.5 29.9, 31.2 28.4 C 30.8 25.9, 32.6 23.1, 35.2 22.4 C 36 22.2, 40.9 22.1, 49.4 22.2 L 62.4 22.2 63.7 23 C 65.2 23.9, 66 24.9, 66.2 26.4 L 66.4 27.5 78.2 27.6 L 90 27.7 89.8 24.9 L 89.6 22.1 102.8 22.1 L 116 22.1 116.1 54.8 L 116.2 87.6 127.8 87.6 L 139.4 87.7 139.4 77.2 C 139.4 71.5, 139.4 57.4, 139.4 46 C 139.4 34.7, 139.4 24.6, 139.5 23.7 L 139.7 22.1 153.2 22.1 L 166.7 22.1 166.7 11.1 L 166.6 0.2 128 0.2 L 89.4 0.2 89.4 10.8 C 89.4 16.7, 89.3 21.2, 89.2 20.9 C 89.1 20.6, 88.7 19.2, 88.2 17.8 C 87.1 14.2, 84.9 10.9, 81.5 7.7 C 79.2 5.5, 78.2 4.8, 75.2 3.3 C 71.2 1.4, 69.1 0.8, 65.2 0.4 C 61.7 0, 37.7 0, 33.6 0.4 M 172.2 0.4 C 172.1 0.6, 172.1 20.3, 172.1 44.2 L 172.2 87.6 207.5 87.6 L 242.8 87.6 242.9 76.8 L 243 65.9 219.6 65.9 L 196.3 65.9 196.3 60.2 L 196.3 54.4 219.1 54.4 L 241.9 54.3 241.9 44.2 C 242 38.6, 242 33.7, 241.9 33.4 L 241.7 32.7 219 32.7 L 196.3 32.7 196.3 27.4 L 196.3 22.1 219.5 22 L 242.8 21.9 242.8 11 L 242.8 0.2 207.6 0.1 C 179.5 0, 172.3 0.1, 172.2 0.4 M 249.9 0.4 C 249.9 0.6, 249.8 20.3, 249.9 44.2 L 249.9 87.6 261.3 87.6 L 272.7 87.6 272.8 63.6 L 273 39.7 275.3 43.1 C 276.6 45, 278.6 48, 279.8 49.8 C 280.9 51.6, 283.7 55.8, 285.8 59.1 C 288 62.4, 290.8 66.8, 292.1 68.7 C 293.4 70.7, 296.7 75.8, 299.5 80 L 304.5 87.7 317 87.6 L 329.6 87.6 329.6 43.9 L 329.6 0.2 318.2 0.2 L 306.9 0.2 306.7 23.6 L 306.6 47.1 302.5 40.9 C 298.8 35.3, 295.7 30.5, 291.4 23.9 C 290.6 22.6, 288.5 19.4, 286.7 16.6 C 282.8 10.7, 280.1 6.4, 277.7 2.7 L 275.9 0 263 0 C 253 0, 250 0.1, 249.9 0.4"/>
  <path fill="#935BF4" fill-rule="evenodd" d="M 32 98.6 C 17.8 100.6, 6.3 110.1, 1.9 123.4 C 0.6 127.3, 0 131.4, 0 136.1 C 0 140.6, 0.3 143.3, 1.3 146.9 C 4.8 160.6, 16.5 170.3, 31.5 172 C 35.6 172.5, 38.2 172.4, 42.4 171.8 C 51.1 170.6, 59.2 166.2, 63.8 160.1 C 67.2 155.6, 69.3 150.2, 69.4 145.4 L 69.5 143.2 59.2 143.2 C 49.4 143.1, 48.8 143.1, 48.8 143.6 C 48.8 144, 48.5 145.1, 48.2 146.2 C 46.5 151, 41.4 153.7, 34.7 153.3 C 29 152.9, 24.7 150.1, 22.4 145.5 C 20.9 142.3, 20.5 140.6, 20.5 135.8 C 20.5 131.1, 20.9 129.3, 22.2 126.4 C 23.6 123.5, 24.9 121.9, 27.4 120.2 C 29.9 118.5, 32.4 117.6, 35.5 117.4 C 40 117, 44.4 118.5, 46.5 121.2 C 47.7 122.6, 48.8 125.5, 48.8 127 L 48.8 127.8 59.3 127.8 L 69.8 127.8 69.6 125.1 C 68.6 112.2, 59.8 102.2, 46.7 99.2 C 43.6 98.5, 35.3 98.2, 32 98.6 M 72.5 134.8 L 72.5 171.4 94.4 171.4 L 116.3 171.4 116.3 162.3 L 116.2 153.2 104.4 153.1 L 92.6 153 92.7 146.1 C 92.7 142.3, 92.8 130, 92.7 118.8 L 92.7 98.3 82.6 98.3 L 72.5 98.3 72.5 134.8 M 216.9 124.4 L 217 150.4 217.8 153.4 C 219.1 158.1, 220.8 161.1, 224.1 164.4 C 226.7 167, 227.3 167.5, 230.5 169 C 235.2 171.3, 238.2 172, 243.8 172.2 C 255.5 172.7, 265.2 168.4, 270.3 160.4 C 272.4 157.1, 273.4 154.7, 274.1 150.6 C 274.4 148.6, 274.8 105.2, 274.5 101 L 274.3 98.3 264.3 98.3 L 254.2 98.3 254.1 101.2 C 254 102.8, 253.9 113.8, 253.9 125.7 C 253.8 137.6, 253.7 147.6, 253.6 148.1 C 253.3 149.5, 252.2 151.2, 251.1 151.9 C 246.6 155.1, 240.2 153.8, 238.2 149.3 C 237.5 147.9, 237.5 147.5, 237.4 123.1 L 237.3 98.3 227.1 98.3 L 216.8 98.3 216.9 124.4 M 278.4 134.8 L 278.4 171.1 295 171 C 310.8 170.9, 311.7 170.9, 314.2 170.2 C 323.8 167.7, 329.5 164.2, 334.2 157.9 C 336.3 155, 337.5 152.7, 338.6 149.1 C 339.9 144.8, 340.1 142.3, 339.9 133.3 C 339.8 125.4, 339.7 124.7, 339 121.8 C 335.6 109.7, 326.9 101.9, 313.9 99.4 C 311.7 98.9, 308.3 98.8, 294.8 98.7 L 278.4 98.5 278.4 134.8 M 167 99.3 C 160.7 100.2, 155.1 103.1, 150.9 107.5 C 147.8 110.7, 145.9 113.7, 144.5 117.7 C 143.8 119.6, 143.3 120.1, 141.9 120.1 C 140 120.1, 135.6 121.3, 133.3 122.4 C 126 126.1, 121.4 131.7, 119.4 139.2 C 116.3 151.3, 121.7 163.5, 132.4 168.8 C 137.8 171.4, 135.5 171.2, 168.1 171.2 L 197.1 171.2 199.8 170.2 C 203.7 168.9, 205.7 167.6, 208.4 164.9 C 212.4 160.9, 214.5 156.2, 214.9 150.7 C 215.4 141, 210 132.4, 201.2 129.1 L 198.9 128.3 198.7 125.2 C 198.4 120.2, 197.1 116.2, 194.5 112.1 C 192.5 109, 191.2 107.6, 188.9 105.7 C 182.4 100.4, 174.6 98.1, 167 99.3 M 298.9 135 L 298.9 152.8 304.5 152.7 C 309.9 152.6, 310 152.6, 312.1 151.6 C 313.2 151, 314.9 149.9, 315.9 149 C 318.8 146.2, 319.8 142.6, 319.8 134.2 C 319.8 127.3, 318.9 123.9, 316.5 121.3 C 313.8 118.4, 310.1 117.3, 303.2 117.3 L 298.9 117.3 298.9 135 M 144.5 148.7 C 142.4 149.3, 141 151.9, 141.4 154.2 C 141.7 155.7, 143.2 157.3, 144.6 157.7 C 145.3 157.9, 149.9 158, 155.9 158 C 165.7 158, 166 158, 167.4 157.3 C 169.1 156.5, 169.9 155.1, 169.9 153.2 C 169.9 151.3, 169.1 149.9, 167.4 149.1 C 166 148.4, 165.8 148.4, 155.7 148.4 C 150.1 148.4, 145 148.6, 144.5 148.7 M 178.4 148.7 C 177.8 148.9, 177 149.5, 176.5 150.1 C 173.1 153.8, 177.2 159.5, 181.8 157.5 C 185.3 155.9, 185.4 150.9, 182 149.1 C 180.5 148.3, 179.9 148.3, 178.4 148.7 M 192.4 149 C 190 150.1, 189 153.1, 190.3 155.5 C 191.1 157.1, 193.3 158.2, 195.1 157.9 C 197.6 157.4, 199.4 154.8, 198.9 152.2 C 198.7 150.8, 197.1 149.1, 195.7 148.7 C 194.2 148.3, 193.8 148.3, 192.4 149"/>
  <path fill="#FAF7FE" fill-rule="evenodd" d="M 144.5 148.7 C 142.4 149.3, 141 151.9, 141.4 154.2 C 141.7 155.7, 143.2 157.3, 144.6 157.7 C 145.3 157.9, 149.9 158, 155.9 158 C 165.7 158, 166 158, 167.4 157.3 C 169.1 156.5, 169.9 155.1, 169.9 153.2 C 169.9 151.3, 169.1 149.9, 167.4 149.1 C 166 148.4, 165.8 148.4, 155.7 148.4 C 150.1 148.4, 145 148.6, 144.5 148.7 M 178.4 148.7 C 177.8 148.9, 177 149.5, 176.5 150.1 C 173.1 153.8, 177.2 159.5, 181.8 157.5 C 185.3 155.9, 185.4 150.9, 182 149.1 C 180.5 148.3, 179.9 148.3, 178.4 148.7 M 192.4 149 C 190 150.1, 189 153.1, 190.3 155.5 C 191.1 157.1, 193.3 158.2, 195.1 157.9 C 197.6 157.4, 199.4 154.8, 198.9 152.2 C 198.7 150.8, 197.1 149.1, 195.7 148.7 C 194.2 148.3, 193.8 148.3, 192.4 149"/>
</svg>
